{
    "asset": {
        "version": "2.0",
        "generator": "Open Asset Import Library (assimp v5.2.cf7d3637)"
    },
    "extensionsUsed": [
        "KHR_materials_volume",
        "KHR_materials_ior",
        "FB_ngon_encoding"
    ],
    "accessors": [
        {
            "bufferView": 0,
            "byteOffset": 0,
            "componentType": 5126,
            "count": 10956,
            "type": "VEC3",
            "max": [
                23.177499771118165,
                0.3174999952316284,
                45.68141174316406
            ],
            "min": [
                -23.177499771118165,
                -2.5399999618530275,
                -55.52391052246094
            ]
        },
        {
            "bufferView": 1,
            "byteOffset": 0,
            "componentType": 5126,
            "count": 10956,
            "type": "VEC3",
            "max": [
                1.0,
                1.0,
                1.0
            ],
            "min": [
                -1.0,
                -1.0,
                -1.0
            ]
        },
        {
            "bufferView": 2,
            "byteOffset": 0,
            "componentType": 5126,
            "count": 10956,
            "type": "VEC2",
            "max": [
                75.55535125732422,
                66.04000091552735
            ],
            "min": [
                -77.43141174316406,
                -41.275001525878909
            ]
        },
        {
            "bufferView": 3,
            "byteOffset": 0,
            "componentType": 5126,
            "count": 10956,
            "type": "VEC2",
            "max": [
                75.55535125732422,
                66.04000091552735
            ],
            "min": [
                -77.43141174316406,
                -41.275001525878909
            ]
        },
        {
            "bufferView": 4,
            "byteOffset": 0,
            "componentType": 5126,
            "count": 10956,
            "type": "VEC2",
            "max": [
                75.55535125732422,
                66.04000091552735
            ],
            "min": [
                -77.43141174316406,
                -41.275001525878909
            ]
        },
        {
            "bufferView": 5,
            "byteOffset": 0,
            "componentType": 5125,
            "count": 10956,
            "type": "SCALAR",
            "max": [
                10955
            ],
            "min": [
                0
            ]
        },
        {
            "bufferView": 6,
            "byteOffset": 0,
            "componentType": 5126,
            "count": 324,
            "type": "VEC3",
            "max": [
                18.09749984741211,
                0.3174999952316284,
                24.764999389648439
            ],
            "min": [
                -18.09749984741211,
                -9.717782134543995e-13,
                -24.1299991607666
            ]
        },
        {
            "bufferView": 7,
            "byteOffset": 0,
            "componentType": 5126,
            "count": 324,
            "type": "VEC3",
            "max": [
                1.0,
                1.0,
                1.0
            ],
            "min": [
                -1.0,
                -1.0,
                -1.0
            ]
        },
        {
            "bufferView": 8,
            "byteOffset": 0,
            "componentType": 5126,
            "count": 324,
            "type": "VEC2",
            "max": [
                46.037498474121097,
                43.18000030517578
            ],
            "min": [
                -46.037498474121097,
                -30.479999542236329
            ]
        },
        {
            "bufferView": 9,
            "byteOffset": 0,
            "componentType": 5126,
            "count": 324,
            "type": "VEC2",
            "max": [
                46.037498474121097,
                43.18000030517578
            ],
            "min": [
                -46.037498474121097,
                -30.479999542236329
            ]
        },
        {
            "bufferView": 10,
            "byteOffset": 0,
            "componentType": 5126,
            "count": 324,
            "type": "VEC2",
            "max": [
                46.037498474121097,
                43.18000030517578
            ],
            "min": [
                -46.037498474121097,
                -30.479999542236329
            ]
        },
        {
            "bufferView": 11,
            "byteOffset": 0,
            "componentType": 5125,
            "count": 324,
            "type": "SCALAR",
            "max": [
                323
            ],
            "min": [
                0
            ]
        }
    ],
    "buffers": [
        {
            "byteLength": 586560,
            "uri": "result.bin"
        }
    ],
    "bufferViews": [
        {
            "buffer": 0,
            "byteOffset": 0,
            "byteLength": 131472,
            "target": 34962
        },
        {
            "buffer": 0,
            "byteOffset": 131472,
            "byteLength": 131472,
            "target": 34962
        },
        {
            "buffer": 0,
            "byteOffset": 262944,
            "byteLength": 87648,
            "target": 34962
        },
        {
            "buffer": 0,
            "byteOffset": 350592,
            "byteLength": 87648,
            "target": 34962
        },
        {
            "buffer": 0,
            "byteOffset": 438240,
            "byteLength": 87648,
            "target": 34962
        },
        {
            "buffer": 0,
            "byteOffset": 525888,
            "byteLength": 43824,
            "target": 34963
        },
        {
            "buffer": 0,
            "byteOffset": 569712,
            "byteLength": 3888,
            "target": 34962
        },
        {
            "buffer": 0,
            "byteOffset": 573600,
            "byteLength": 3888,
            "target": 34962
        },
        {
            "buffer": 0,
            "byteOffset": 577488,
            "byteLength": 2592,
            "target": 34962
        },
        {
            "buffer": 0,
            "byteOffset": 580080,
            "byteLength": 2592,
            "target": 34962
        },
        {
            "buffer": 0,
            "byteOffset": 582672,
            "byteLength": 2592,
            "target": 34962
        },
        {
            "buffer": 0,
            "byteOffset": 585264,
            "byteLength": 1296,
            "target": 34963
        }
    ],
    "images": [
        {
            "uri": "data:image/png;base64,"
        }
    ],
    "materials": [
        {
            "name": "material",
            "pbrMetallicRoughness": {
                "baseColorTexture": {
                    "index": 0
                },
                "metallicFactor": 0.0
            },
            "extensions": {
                "KHR_materials_ior": {
                    "ior": 1.0
                }
            }
        },
        {
            "name": "material",
            "pbrMetallicRoughness": {
                "baseColorFactor": [
                    0.3500002920627594,
                    0.3500002920627594,
                    0.3500002920627594,
                    1.0
                ],
                "roughnessFactor": 0.2645750045776367
            },
            "extensions": {
                "KHR_materials_ior": {
                    "ior": 50.0
                }
            }
        },
        {
            "name": "material"
        }
    ],
    "meshes": [
        {
            "name": "meshes[0]",
            "primitives": [
                {
                    "mode": 4,
                    "material": 0,
                    "indices": 5,
                    "attributes": {
                        "POSITION": 0,
                        "NORMAL": 1,
                        "TEXCOORD_0": 2,
                        "TEXCOORD_1": 3,
                        "TEXCOORD_2": 4
                    }
                }
            ]
        },
        {
            "name": "meshes[1]",
            "primitives": [
                {
                    "mode": 4,
                    "material": 1,
                    "indices": 11,
                    "attributes": {
                        "POSITION": 6,
                        "NORMAL": 7,
                        "TEXCOORD_0": 8,
                        "TEXCOORD_1": 9,
                        "TEXCOORD_2": 10
                    }
                }
            ]
        }
    ],
    "nodes": [
        {
            "name": "nodes[3]",
            "children": [
                1
            ]
        },
        {
            "name": "nodes[2]",
            "children": [
                2,
                3
            ]
        },
        {
            "name": "nodes[0]",
            "matrix": [
                0.03280840069055557,
                0.0,
                0.0,
                0.0,
                0.0,
                0.03280840069055557,
                0.0,
                0.0,
                0.0,
                0.0,
                0.03280840069055557,
                0.0,
                0.0,
                0.0,
                0.0,
                1.0
            ],
            "mesh": 0
        },
        {
            "name": "nodes[1]",
            "matrix": [
                0.03280840069055557,
                0.0,
                0.0,
                0.0,
                0.0,
                0.03280840069055557,
                0.0,
                0.0,
                0.0,
                0.0,
                0.03280840069055557,
                0.0,
                0.0,
                0.0,
                0.0,
                1.0
            ],
            "mesh": 1
        }
    ],
    "samplers": [
        {
            "magFilter": 9729,
            "minFilter": 9987
        }
    ],
    "scenes": [
        {
            "nodes": [
                0
            ]
        }
    ],
    "textures": [
        {
            "source": 0,
            "sampler": 0
        }
    ],
    "scene": 0
}